<?xml version="1.0" encoding="utf-8"?>
<!-- Generator: Adobe Illustrator 28.1.0, SVG Export Plug-In . SVG Version: 6.00 Build 0)  -->
<svg version="1.1" id="Layer_1" xmlns="http://www.w3.org/2000/svg" xmlns:xlink="http://www.w3.org/1999/xlink" x="0px" y="0px"
	 viewBox="0 0 499.1 400" style="enable-background:new 0 0 499.1 400;" xml:space="preserve">
<style type="text/css">
	.st0{fill:#18181B;}
	.st1{fill:#3B82F6;}
</style>
<path class="st0" d="M249.3,49.7c40,0,77.7,15.6,106,43.9c28.3,28.3,43.9,65.9,43.9,106s-15.6,77.7-43.9,106
	c-28.3,28.3-65.9,43.9-106,43.9s-77.7-15.6-106-43.9c-28.3-28.3-43.9-65.9-43.9-106s15.6-77.7,43.9-106
	C171.6,65.3,209.3,49.7,249.3,49.7 M249.3,33.7c-91.6,0-165.9,74.3-165.9,165.9s74.3,165.9,165.9,165.9s165.9-74.3,165.9-165.9
	S340.9,33.7,249.3,33.7L249.3,33.7z"/>
<g>
	<path class="st1" d="M229,162.8h-25.1c-0.1-12.3,4.1-22.5,12.7-30.5c8.6-8,19.9-12.1,33.9-12.1c9,0,16.7,1.7,23,5
		c6.3,3.3,11.4,8.1,15.2,14.4c3.8,6.3,5.7,12.9,5.7,19.8c0,3.8-0.6,7.5-1.8,11.1c-1.2,3.6-3.1,7.4-5.8,11.2c-1.5,2.2-5.2,6-11,11.3
		c-5.6,5.1-9.1,8.6-10.5,10.7c-1.4,2.1-2.6,4.8-3.6,8.3c-1,3.5-1.6,8.3-1.8,14.4h-26l-0.1-4.3c0-8.6,1.6-16.4,4.7-23.4
		c3.1-7,8.2-13.6,15.3-19.7c6.8-6,10.9-10,12.3-12.3c1.4-2.2,2.1-4.9,2.1-7.9c0-4.1-1.7-7.6-5.1-10.4c-3.4-2.8-8-4.3-13.8-4.3
		c-5.9,0-10.7,1.7-14.5,5.2C231,152.8,229.1,157.3,229,162.8z M247.3,237.4c4.7,0,8.7,1.6,11.9,4.8c3.3,3.2,4.9,7.1,4.9,11.6
		c0,4.5-1.6,8.4-4.9,11.7c-3.3,3.2-7.2,4.8-11.8,4.8s-8.5-1.6-11.8-4.8c-3.2-3.2-4.8-7.1-4.8-11.7c0-4.5,1.6-8.4,4.8-11.6
		C238.9,239,242.8,237.4,247.3,237.4z"/>
</g>
</svg>
