<?xml version="1.0" encoding="utf-8"?>
<!-- Generator: Adobe Illustrator 28.1.0, SVG Export Plug-In . SVG Version: 6.00 Build 0)  -->
<svg version="1.1" id="Layer_1" xmlns="http://www.w3.org/2000/svg" xmlns:xlink="http://www.w3.org/1999/xlink" x="0px" y="0px"
	 viewBox="0 0 400 400" style="enable-background:new 0 0 400 400;" xml:space="preserve">
<style type="text/css">
	.st0{fill:#181818;}
	.st1{fill:#3B82F6;}
</style>
<g>
	<g>
		<path class="st0" d="M362.4,186.8h-98v-11.7c0-10.3-8.4-18.7-18.7-18.7s-18.7,8.4-18.7,18.7v11.7h-98c-7.1,0-12.9,5.4-13.6,12.3
			c0,0.5-0.1,0.9-0.1,1.4v89.1c0,7.5,6.1,13.6,13.6,13.6h16.5v37.2H74.3V160.2L193.4,81l119.1,79.2v14.4c0,2.8,2.3,5.1,5.1,5.1
			c2.8,0,5.1-2.3,5.1-5.1V167l15.3,10.2c5.8,3.9,13.3,3.9,19.1,0c4.8-3.2,7.7-8.6,7.7-14.4c0-5.8-2.9-11.2-7.7-14.4L198.3,42.8
			c-3-2-6.8-2-9.8,0l-92.2,61.3c-2.3,1.5-3,4.7-1.4,7c1.5,2.3,4.7,3,7,1.4l91.4-60.8l158.1,105.2c2,1.3,3.2,3.5,3.2,5.9
			s-1.2,4.6-3.2,5.9c-2.4,1.6-5.5,1.6-7.9,0L198.3,72.1c-3-2-6.8-2-9.8,0L43.2,168.8c-2.4,1.6-5.5,1.6-7.9,0c-2-1.3-3.2-3.5-3.2-5.9
			s1.2-4.6,3.2-5.9l40.5-27c2.3-1.5,3-4.7,1.4-7c-1.5-2.3-4.7-3-7-1.4l-40.5,26.9c-4.8,3.2-7.7,8.6-7.7,14.4s2.9,11.2,7.7,14.4
			c2.9,1.9,6.2,2.9,9.6,2.9c3.3,0,6.7-1,9.6-2.9L64.2,167v173.5H44.8c-8.4,0-15.3,6.9-15.3,15.3s6.9,15.3,15.3,15.3h297.3
			c8.4,0,15.3-6.9,15.3-15.3s-6.9-15.3-15.3-15.3h-19.4v-25c0-2.8-2.3-5.1-5.1-5.1s-5.1,2.3-5.1,5.1v25h-48.2v-37.2h98
			c7.5,0,13.6-6.1,13.6-13.6v-89.1C376,193,369.9,186.8,362.4,186.8z M237.1,175.1c0-4.7,3.9-8.6,8.6-8.6c4.7,0,8.6,3.9,8.6,8.6
			v11.7h-17.2L237.1,175.1L237.1,175.1z M226.9,360.9H44.8c-2.8,0-5.2-2.3-5.2-5.2s2.3-5.2,5.2-5.2H227v10.4L226.9,360.9
			L226.9,360.9z M226.9,340.4h-71.3v-37.2h71.3V340.4z M254.3,360.9h-17.2v-57.6h17.2V360.9z M342.1,350.6L342.1,350.6
			c2.8,0,5.2,2.3,5.2,5.2s-2.3,5.2-5.2,5.2h-77.7v-10.3L342.1,350.6L342.1,350.6z M362.4,293.1H129c-1.9,0-3.5-1.6-3.5-3.5v-89.1
			c0-1.9,1.6-3.5,3.5-3.5h233.4c1.9,0,3.5,1.6,3.5,3.5v89.1l0,0C365.9,291.6,364.3,293.1,362.4,293.1z"/>
	</g>
</g>
<g>
	<g>
		<path class="st1" d="M193.4,103.3c-17.6,0-31.9,14.3-31.9,31.9s14.3,31.9,31.9,31.9s31.9-14.3,31.9-31.9
			C225.3,117.6,211,103.3,193.4,103.3z M188.4,156.4c-8-1.9-14.2-8.2-16.1-16.1h16.1V156.4z M188.4,130.1h-16.1
			c1.9-7.9,8.2-14.2,16.1-16.1V130.1z M198.5,114c7.9,1.9,14.2,8.2,16.1,16.1h-16.1V114z M198.5,156.4v-16.1h16.1
			C212.7,148.2,206.4,154.5,198.5,156.4z"/>
	</g>
</g>
<g>
	<path class="st1" d="M149.1,269.8v-50.9h21c3.8,0,7.1,0.7,9.9,2.1s4.9,3.3,6.4,5.9s2.3,5.6,2.3,9c0,3.5-0.8,6.5-2.3,9
		s-3.7,4.3-6.6,5.6c-2.8,1.3-6.2,1.9-10.1,1.9h-13.3v-9.7h11c1.9,0,3.4-0.2,4.7-0.7s2.2-1.2,2.8-2.2s1-2.3,1-3.9
		c0-1.6-0.3-2.9-1-3.9c-0.6-1-1.6-1.8-2.9-2.3c-1.3-0.5-2.8-0.8-4.6-0.8h-6.1v41h-12.2V269.8z M177.7,246.5l12.7,23.3H177
		l-12.4-23.3L177.7,246.5L177.7,246.5z"/>
	<path class="st1" d="M199.6,269.8v-50.9h35.5v10h-23.2v10.4h21.4v10h-21.4v10.5h23.2v10H199.6z"/>
	<path class="st1" d="M290.3,218.9v50.9h-10.4l-20.3-29.4h-0.3v29.4H247v-50.9h10.6l20,29.3h0.4v-29.3H290.3z"/>
	<path class="st1" d="M300.6,228.9v-10h43v10h-15.4v40.9H316v-40.9H300.6z"/>
</g>
</svg>
